<svg width="283" height="168" viewBox="0 0 283 168" fill="none" xmlns="http://www.w3.org/2000/svg">
<g filter="url(#filter1_i_106_437)">
<path d="M250.326 85.6286C251.049 81.5244 251.426 77.3023 251.426 72.9931C251.426 32.6801 218.441 0 177.752 0C147.503 0 121.512 18.0612 110.166 43.8927C100.974 36.03 89.0468 31.2828 76.0124 31.2828C46.949 31.2828 23.3884 54.8851 23.3884 84C23.3884 85.6212 23.4615 87.2254 23.6045 88.8094C9.62549 95.5932 0 109.828 0 126.29C0 149.326 18.8484 168 42.0992 168H240.901C264.152 168 283 149.326 283 126.29C283 106.464 269.039 89.8689 250.326 85.6286Z" fill="url(#paint0_linear_106_437)"/>
</g>
<defs>
<filter id="filter1_i_106_437" x="0" y="0" width="283" height="178" filterUnits="userSpaceOnUse" color-interpolation-filters="sRGB">
<feFlood flood-opacity="0" result="BackgroundImageFix"/>
<feBlend mode="normal" in="SourceGraphic" in2="BackgroundImageFix" result="shape"/>
<feColorMatrix in="SourceAlpha" type="matrix" values="0 0 0 0 0 0 0 0 0 0 0 0 0 0 0 0 0 0 127 0" result="hardAlpha"/>
<feOffset dy="11"/>
<feGaussianBlur stdDeviation="5"/>
<feComposite in2="hardAlpha" operator="arithmetic" k2="-1" k3="1"/>
<feColorMatrix type="matrix" values="0 0 0 0 1 0 0 0 0 1 0 0 0 0 1 0 0 0 1 0"/>
<feBlend mode="normal" in2="shape" result="effect1_innerShadow_106_437"/>
</filter>
<linearGradient id="paint0_linear_106_437" x1="18" y1="153" x2="303.5" y2="-60.5" gradientUnits="userSpaceOnUse">
<stop stop-color="white"/>
<stop offset="1" stop-color="white" stop-opacity="0.58"/>
</linearGradient>
</defs>
</svg>
