<svg width="447" height="438" viewBox="0 0 447 438" fill="none" xmlns="http://www.w3.org/2000/svg">
<g filter="url(#filter0_f_106_442)">
<rect x="130" y="77" width="240" height="226" rx="94" fill="#FFEF9A"/>
</g>
<g filter="url(#filter1_i_106_442)">
<path d="M356 190C356 249.094 308.542 297 250 297C191.458 297 144 249.094 144 190C144 130.906 191.458 83 250 83C308.542 83 356 130.906 356 190Z" fill="url(#paint0_linear_106_442)"/>
</g>
<g filter="url(#filter3_i_106_442)">
<path d="M301.326 231.629C302.049 227.524 302.426 223.302 302.426 218.993C302.426 178.68 269.441 146 228.752 146C198.503 146 172.512 164.061 161.166 189.893C151.974 182.03 140.047 177.283 127.012 177.283C97.949 177.283 74.3884 200.885 74.3884 230C74.3884 231.621 74.4615 233.225 74.6045 234.809C60.6255 241.593 51 255.828 51 272.29C51 295.326 69.8484 314 93.0992 314H291.901C315.152 314 334 295.326 334 272.29C334 252.464 320.039 235.869 301.326 231.629Z" fill="url(#paint1_linear_106_442)"/>
</g>
<g filter="url(#filter4_di_106_442)">
<path d="M198.118 336.757C180.07 346.559 150.79 369.223 178.053 381.46C205.316 393.697 202.789 356.756 198.118 336.757Z" fill="#00BCFF"/>
</g>
<g filter="url(#filter5_di_106_442)">
<path d="M115.973 351.911C97.2151 360.275 66.2553 380.584 92.4796 394.912C118.704 409.239 119.069 372.214 115.973 351.911Z" fill="#00BCFF"/>
</g>
<g filter="url(#filter6_f_106_442)">
<rect x="78" y="309" width="240" height="35" rx="17.5" fill="#00BCFF"/>
</g>
<defs>
<filter id="filter0_f_106_442" x="53" y="0" width="394" height="380" filterUnits="userSpaceOnUse" color-interpolation-filters="sRGB">
<feFlood flood-opacity="0" result="BackgroundImageFix"/>
<feBlend mode="normal" in="SourceGraphic" in2="BackgroundImageFix" result="shape"/>
<feGaussianBlur stdDeviation="38.5" result="effect1_foregroundBlur_106_442"/>
</filter>
<filter id="filter1_i_106_442" x="144" y="83" width="212" height="219" filterUnits="userSpaceOnUse" color-interpolation-filters="sRGB">
<feFlood flood-opacity="0" result="BackgroundImageFix"/>
<feBlend mode="normal" in="SourceGraphic" in2="BackgroundImageFix" result="shape"/>
<feColorMatrix in="SourceAlpha" type="matrix" values="0 0 0 0 0 0 0 0 0 0 0 0 0 0 0 0 0 0 127 0" result="hardAlpha"/>
<feOffset dy="5"/>
<feGaussianBlur stdDeviation="9"/>
<feComposite in2="hardAlpha" operator="arithmetic" k2="-1" k3="1"/>
<feColorMatrix type="matrix" values="0 0 0 0 1 0 0 0 0 1 0 0 0 0 1 0 0 0 0.81 0"/>
<feBlend mode="normal" in2="shape" result="effect1_innerShadow_106_442"/>
</filter>
<filter id="filter3_i_106_442" x="51" y="146" width="283" height="178" filterUnits="userSpaceOnUse" color-interpolation-filters="sRGB">
<feFlood flood-opacity="0" result="BackgroundImageFix"/>
<feBlend mode="normal" in="SourceGraphic" in2="BackgroundImageFix" result="shape"/>
<feColorMatrix in="SourceAlpha" type="matrix" values="0 0 0 0 0 0 0 0 0 0 0 0 0 0 0 0 0 0 127 0" result="hardAlpha"/>
<feOffset dy="11"/>
<feGaussianBlur stdDeviation="5"/>
<feComposite in2="hardAlpha" operator="arithmetic" k2="-1" k3="1"/>
<feColorMatrix type="matrix" values="0 0 0 0 1 0 0 0 0 1 0 0 0 0 1 0 0 0 1 0"/>
<feBlend mode="normal" in2="shape" result="effect1_innerShadow_106_442"/>
</filter>
<filter id="filter4_di_106_442" x="147.947" y="336.757" width="72.1055" height="86.1337" filterUnits="userSpaceOnUse" color-interpolation-filters="sRGB">
<feFlood flood-opacity="0" result="BackgroundImageFix"/>
<feColorMatrix in="SourceAlpha" type="matrix" values="0 0 0 0 0 0 0 0 0 0 0 0 0 0 0 0 0 0 127 0" result="hardAlpha"/>
<feOffset dy="20"/>
<feGaussianBlur stdDeviation="9.5"/>
<feComposite in2="hardAlpha" operator="out"/>
<feColorMatrix type="matrix" values="0 0 0 0 0.283785 0 0 0 0 0.178889 0 0 0 0 0.933333 0 0 0 1 0"/>
<feBlend mode="normal" in2="BackgroundImageFix" result="effect1_dropShadow_106_442"/>
<feBlend mode="normal" in="SourceGraphic" in2="effect1_dropShadow_106_442" result="shape"/>
<feColorMatrix in="SourceAlpha" type="matrix" values="0 0 0 0 0 0 0 0 0 0 0 0 0 0 0 0 0 0 127 0" result="hardAlpha"/>
<feOffset dy="9"/>
<feGaussianBlur stdDeviation="1.5"/>
<feComposite in2="hardAlpha" operator="arithmetic" k2="-1" k3="1"/>
<feColorMatrix type="matrix" values="0 0 0 0 1 0 0 0 0 1 0 0 0 0 1 0 0 0 0.21 0"/>
<feBlend mode="normal" in2="shape" result="effect2_innerShadow_106_442"/>
</filter>
<filter id="filter5_di_106_442" x="63.375" y="351.911" width="72.9209" height="85.2153" filterUnits="userSpaceOnUse" color-interpolation-filters="sRGB">
<feFlood flood-opacity="0" result="BackgroundImageFix"/>
<feColorMatrix in="SourceAlpha" type="matrix" values="0 0 0 0 0 0 0 0 0 0 0 0 0 0 0 0 0 0 127 0" result="hardAlpha"/>
<feOffset dy="20"/>
<feGaussianBlur stdDeviation="9.5"/>
<feComposite in2="hardAlpha" operator="out"/>
<feColorMatrix type="matrix" values="0 0 0 0 0.283785 0 0 0 0 0.178889 0 0 0 0 0.933333 0 0 0 1 0"/>
<feBlend mode="normal" in2="BackgroundImageFix" result="effect1_dropShadow_106_442"/>
<feBlend mode="normal" in="SourceGraphic" in2="effect1_dropShadow_106_442" result="shape"/>
<feColorMatrix in="SourceAlpha" type="matrix" values="0 0 0 0 0 0 0 0 0 0 0 0 0 0 0 0 0 0 127 0" result="hardAlpha"/>
<feOffset dy="9"/>
<feGaussianBlur stdDeviation="1.5"/>
<feComposite in2="hardAlpha" operator="arithmetic" k2="-1" k3="1"/>
<feColorMatrix type="matrix" values="0 0 0 0 1 0 0 0 0 1 0 0 0 0 1 0 0 0 0.21 0"/>
<feBlend mode="normal" in2="shape" result="effect2_innerShadow_106_442"/>
</filter>
<filter id="filter6_f_106_442" x="0" y="231" width="396" height="191" filterUnits="userSpaceOnUse" color-interpolation-filters="sRGB">
<feFlood flood-opacity="0" result="BackgroundImageFix"/>
<feBlend mode="normal" in="SourceGraphic" in2="BackgroundImageFix" result="shape"/>
<feGaussianBlur stdDeviation="39" result="effect1_foregroundBlur_106_442"/>
</filter>
<linearGradient id="paint0_linear_106_442" x1="233.899" y1="248.241" x2="322.356" y2="94.5502" gradientUnits="userSpaceOnUse">
<stop stop-color="#FF9900"/>
<stop offset="1" stop-color="#FFEE94"/>
</linearGradient>
<linearGradient id="paint1_linear_106_442" x1="69" y1="299" x2="354.5" y2="85.5" gradientUnits="userSpaceOnUse">
<stop stop-color="white"/>
<stop offset="1" stop-color="white" stop-opacity="0.58"/>
</linearGradient>
</defs>
</svg>
