<svg width="516" height="310" viewBox="0 0 516 310" fill="none" xmlns="http://www.w3.org/2000/svg">
<g filter="url(#filter1_i_106_438)">
<path d="M369.061 199.241C369.613 196.114 369.901 192.897 369.901 189.614C369.901 158.899 344.725 134 313.669 134C290.582 134 270.744 147.761 262.084 167.442C255.069 161.451 245.965 157.834 236.017 157.834C213.834 157.834 195.851 175.817 195.851 198C195.851 199.235 195.907 200.457 196.016 201.664C185.347 206.833 178 217.678 178 230.221C178 247.772 192.386 262 210.132 262H361.868C379.614 262 394 247.772 394 230.221C394 215.115 383.344 202.472 369.061 199.241Z" fill="url(#paint0_linear_106_438)"/>
</g>
<g filter="url(#filter3_i_106_438)">
<path d="M247.68 135.253C248.129 132.701 248.364 130.075 248.364 127.395C248.364 102.324 227.85 82 202.545 82C183.734 82 167.57 93.2324 160.513 109.297C154.797 104.407 147.379 101.455 139.273 101.455C121.198 101.455 106.545 116.133 106.545 134.24C106.545 135.249 106.591 136.246 106.68 137.231C97.9862 141.45 92 150.303 92 160.541C92 174.867 103.722 186.481 118.182 186.481H241.818C256.278 186.481 268 174.867 268 160.541C268 148.211 259.317 137.89 247.68 135.253Z" fill="url(#paint1_linear_106_438)"/>
</g>
<g filter="url(#filter4_f_106_438)">
<rect x="198" y="78" width="240" height="35" rx="17.5" fill="#00BCFF"/>
</g>
<g filter="url(#filter5_f_106_438)">
<rect x="78" y="197" width="240" height="35" rx="17.5" fill="#00BCFF"/>
</g>
<defs>
<filter id="filter1_i_106_438" x="178" y="134" width="216" height="138" filterUnits="userSpaceOnUse" color-interpolation-filters="sRGB">
<feFlood flood-opacity="0" result="BackgroundImageFix"/>
<feBlend mode="normal" in="SourceGraphic" in2="BackgroundImageFix" result="shape"/>
<feColorMatrix in="SourceAlpha" type="matrix" values="0 0 0 0 0 0 0 0 0 0 0 0 0 0 0 0 0 0 127 0" result="hardAlpha"/>
<feOffset dy="11"/>
<feGaussianBlur stdDeviation="5"/>
<feComposite in2="hardAlpha" operator="arithmetic" k2="-1" k3="1"/>
<feColorMatrix type="matrix" values="0 0 0 0 1 0 0 0 0 1 0 0 0 0 1 0 0 0 1 0"/>
<feBlend mode="normal" in2="shape" result="effect1_innerShadow_106_438"/>
</filter>
<filter id="filter3_i_106_438" x="92" y="82" width="176" height="114.481" filterUnits="userSpaceOnUse" color-interpolation-filters="sRGB">
<feFlood flood-opacity="0" result="BackgroundImageFix"/>
<feBlend mode="normal" in="SourceGraphic" in2="BackgroundImageFix" result="shape"/>
<feColorMatrix in="SourceAlpha" type="matrix" values="0 0 0 0 0 0 0 0 0 0 0 0 0 0 0 0 0 0 127 0" result="hardAlpha"/>
<feOffset dy="11"/>
<feGaussianBlur stdDeviation="5"/>
<feComposite in2="hardAlpha" operator="arithmetic" k2="-1" k3="1"/>
<feColorMatrix type="matrix" values="0 0 0 0 1 0 0 0 0 1 0 0 0 0 1 0 0 0 1 0"/>
<feBlend mode="normal" in2="shape" result="effect1_innerShadow_106_438"/>
</filter>
<filter id="filter4_f_106_438" x="120" y="0" width="396" height="191" filterUnits="userSpaceOnUse" color-interpolation-filters="sRGB">
<feFlood flood-opacity="0" result="BackgroundImageFix"/>
<feBlend mode="normal" in="SourceGraphic" in2="BackgroundImageFix" result="shape"/>
<feGaussianBlur stdDeviation="39" result="effect1_foregroundBlur_106_438"/>
</filter>
<filter id="filter5_f_106_438" x="0" y="119" width="396" height="191" filterUnits="userSpaceOnUse" color-interpolation-filters="sRGB">
<feFlood flood-opacity="0" result="BackgroundImageFix"/>
<feBlend mode="normal" in="SourceGraphic" in2="BackgroundImageFix" result="shape"/>
<feGaussianBlur stdDeviation="39" result="effect1_foregroundBlur_106_438"/>
</filter>
<linearGradient id="paint0_linear_106_438" x1="191.739" y1="250.571" x2="409.371" y2="87.5362" gradientUnits="userSpaceOnUse">
<stop stop-color="white"/>
<stop offset="1" stop-color="white" stop-opacity="0.58"/>
</linearGradient>
<linearGradient id="paint1_linear_106_438" x1="103.194" y1="177.152" x2="280.749" y2="44.3745" gradientUnits="userSpaceOnUse">
<stop stop-color="white"/>
<stop offset="1" stop-color="white" stop-opacity="0.58"/>
</linearGradient>
</defs>
</svg>
