<svg width="411" height="280" viewBox="0 0 411 280" fill="none" xmlns="http://www.w3.org/2000/svg">
<g filter="url(#filter1_i_106_465)">
<path d="M326.747 95.0084C327.549 90.4546 327.967 85.7701 327.967 80.9888C327.967 36.2599 291.369 0 246.223 0C212.661 0 183.823 20.0397 171.234 48.7007C161.035 39.9768 147.801 34.7095 133.339 34.7095C101.092 34.7095 74.9504 60.8972 74.9504 93.2014C74.9504 95.0003 75.0315 96.7801 75.1902 98.5376C59.6799 106.065 49 121.858 49 140.124C49 165.683 69.9131 186.403 95.7108 186.403H316.289C342.087 186.403 363 165.683 363 140.124C363 118.126 347.51 99.7132 326.747 95.0084Z" fill="url(#paint0_linear_106_465)"/>
</g>
<g filter="url(#filter2_f_106_465)">
<rect x="77" y="153" width="257" height="50" rx="25" fill="#0C55E7"/>
</g>
<path d="M160 166L106 258" stroke="url(#paint1_linear_106_465)" stroke-width="10" stroke-linecap="round"/>
<path d="M213 178L159 270" stroke="url(#paint2_linear_106_465)" stroke-width="10" stroke-linecap="round"/>
<path d="M267 164L213 256" stroke="url(#paint3_linear_106_465)" stroke-width="10" stroke-linecap="round"/>
<defs>
<filter id="filter1_i_106_465" x="49" y="0" width="314" height="196.403" filterUnits="userSpaceOnUse" color-interpolation-filters="sRGB">
<feFlood flood-opacity="0" result="BackgroundImageFix"/>
<feBlend mode="normal" in="SourceGraphic" in2="BackgroundImageFix" result="shape"/>
<feColorMatrix in="SourceAlpha" type="matrix" values="0 0 0 0 0 0 0 0 0 0 0 0 0 0 0 0 0 0 127 0" result="hardAlpha"/>
<feOffset dy="11"/>
<feGaussianBlur stdDeviation="5"/>
<feComposite in2="hardAlpha" operator="arithmetic" k2="-1" k3="1"/>
<feColorMatrix type="matrix" values="0 0 0 0 1 0 0 0 0 1 0 0 0 0 1 0 0 0 1 0"/>
<feBlend mode="normal" in2="shape" result="effect1_innerShadow_106_465"/>
</filter>
<filter id="filter2_f_106_465" x="0" y="76" width="411" height="204" filterUnits="userSpaceOnUse" color-interpolation-filters="sRGB">
<feFlood flood-opacity="0" result="BackgroundImageFix"/>
<feBlend mode="normal" in="SourceGraphic" in2="BackgroundImageFix" result="shape"/>
<feGaussianBlur stdDeviation="38.5" result="effect1_foregroundBlur_106_465"/>
</filter>
<linearGradient id="paint0_linear_106_465" x1="68.9717" y1="169.76" x2="385.746" y2="-67.1272" gradientUnits="userSpaceOnUse">
<stop stop-color="#A09494"/>
<stop offset="1" stop-color="white" stop-opacity="0.58"/>
</linearGradient>
<linearGradient id="paint1_linear_106_465" x1="159.569" y1="165.747" x2="105.569" y2="257.747" gradientUnits="userSpaceOnUse">
<stop stop-color="#91CEFF"/>
<stop offset="1" stop-color="#1D80D0"/>
</linearGradient>
<linearGradient id="paint2_linear_106_465" x1="212.569" y1="177.747" x2="158.569" y2="269.747" gradientUnits="userSpaceOnUse">
<stop stop-color="#91CEFF"/>
<stop offset="1" stop-color="#1D80D0"/>
</linearGradient>
<linearGradient id="paint3_linear_106_465" x1="266.569" y1="163.747" x2="212.569" y2="255.747" gradientUnits="userSpaceOnUse">
<stop stop-color="#91CEFF"/>
<stop offset="1" stop-color="#1D80D0"/>
</linearGradient>
</defs>
</svg>
