<svg width="393" height="382" viewBox="0 0 393 382" fill="none" xmlns="http://www.w3.org/2000/svg">
<g filter="url(#filter0_i_140_271)">
<path d="M337.322 128.559C337.681 126.78 337.869 124.95 337.869 123.081C337.869 105.604 321.452 91.436 301.2 91.436C286.144 91.436 273.208 99.2663 267.56 110.465C262.985 107.056 257.049 104.998 250.561 104.998C236.096 104.998 224.369 115.231 224.369 127.853C224.369 128.556 224.405 129.252 224.476 129.938C217.519 132.879 212.728 139.051 212.728 146.187C212.728 156.174 222.109 164.27 233.682 164.27H332.631C344.203 164.27 353.584 156.174 353.584 146.187C353.584 137.592 346.636 130.398 337.322 128.559Z" fill="url(#paint0_linear_140_271)"/>
</g>
<g filter="url(#filter1_f_140_271)">
<rect x="77.8228" y="77" width="238.068" height="227.489" rx="94" fill="#FFEF9A"/>
</g>
<g filter="url(#filter2_i_140_271)">
<path d="M302.003 190.744C302.003 250.228 254.927 298.449 196.856 298.449C138.786 298.449 91.71 250.228 91.71 190.744C91.71 131.261 138.786 83.0396 196.856 83.0396C254.927 83.0396 302.003 131.261 302.003 190.744Z" fill="url(#paint1_linear_140_271)"/>
</g>
<g filter="url(#filter4_i_140_271)">
<path d="M167.525 231.066C168 228.379 168.248 225.615 168.248 222.793C168.248 196.398 146.569 175 119.826 175C99.9457 175 82.8633 186.826 75.406 203.739C69.3648 198.591 61.5254 195.483 52.9587 195.483C33.8569 195.483 18.3719 210.937 18.3719 230C18.3719 231.062 18.4199 232.112 18.5139 233.149C9.32631 237.591 3.00002 246.911 3.00002 257.69C3.00002 272.773 15.388 285 30.6694 285H161.331C176.612 285 189 272.773 189 257.69C189 244.709 179.824 233.843 167.525 231.066Z" fill="url(#paint2_linear_140_271)"/>
</g>
<defs>
<filter id="filter0_i_140_271" x="212.728" y="91.436" width="140.857" height="82.8345" filterUnits="userSpaceOnUse" color-interpolation-filters="sRGB">
<feFlood flood-opacity="0" result="BackgroundImageFix"/>
<feBlend mode="normal" in="SourceGraphic" in2="BackgroundImageFix" result="shape"/>
<feColorMatrix in="SourceAlpha" type="matrix" values="0 0 0 0 0 0 0 0 0 0 0 0 0 0 0 0 0 0 127 0" result="hardAlpha"/>
<feOffset dy="11"/>
<feGaussianBlur stdDeviation="5"/>
<feComposite in2="hardAlpha" operator="arithmetic" k2="-1" k3="1"/>
<feColorMatrix type="matrix" values="0 0 0 0 1 0 0 0 0 1 0 0 0 0 1 0 0 0 1 0"/>
<feBlend mode="normal" in2="shape" result="effect1_innerShadow_140_271"/>
</filter>
<filter id="filter1_f_140_271" x="0.822754" y="0" width="392.068" height="381.489" filterUnits="userSpaceOnUse" color-interpolation-filters="sRGB">
<feFlood flood-opacity="0" result="BackgroundImageFix"/>
<feBlend mode="normal" in="SourceGraphic" in2="BackgroundImageFix" result="shape"/>
<feGaussianBlur stdDeviation="38.5" result="effect1_foregroundBlur_140_271"/>
</filter>
<filter id="filter2_i_140_271" x="91.71" y="83.0396" width="210.293" height="220.41" filterUnits="userSpaceOnUse" color-interpolation-filters="sRGB">
<feFlood flood-opacity="0" result="BackgroundImageFix"/>
<feBlend mode="normal" in="SourceGraphic" in2="BackgroundImageFix" result="shape"/>
<feColorMatrix in="SourceAlpha" type="matrix" values="0 0 0 0 0 0 0 0 0 0 0 0 0 0 0 0 0 0 127 0" result="hardAlpha"/>
<feOffset dy="5"/>
<feGaussianBlur stdDeviation="9"/>
<feComposite in2="hardAlpha" operator="arithmetic" k2="-1" k3="1"/>
<feColorMatrix type="matrix" values="0 0 0 0 1 0 0 0 0 1 0 0 0 0 1 0 0 0 0.81 0"/>
<feBlend mode="normal" in2="shape" result="effect1_innerShadow_140_271"/>
</filter>
<filter id="filter4_i_140_271" x="3" y="175" width="186" height="120" filterUnits="userSpaceOnUse" color-interpolation-filters="sRGB">
<feFlood flood-opacity="0" result="BackgroundImageFix"/>
<feBlend mode="normal" in="SourceGraphic" in2="BackgroundImageFix" result="shape"/>
<feColorMatrix in="SourceAlpha" type="matrix" values="0 0 0 0 0 0 0 0 0 0 0 0 0 0 0 0 0 0 127 0" result="hardAlpha"/>
<feOffset dy="11"/>
<feGaussianBlur stdDeviation="5"/>
<feComposite in2="hardAlpha" operator="arithmetic" k2="-1" k3="1"/>
<feColorMatrix type="matrix" values="0 0 0 0 1 0 0 0 0 1 0 0 0 0 1 0 0 0 1 0"/>
<feBlend mode="normal" in2="shape" result="effect1_innerShadow_140_271"/>
</filter>
<linearGradient id="paint0_linear_140_271" x1="221.687" y1="157.767" x2="349.239" y2="48.2604" gradientUnits="userSpaceOnUse">
<stop stop-color="white"/>
<stop offset="1" stop-color="white" stop-opacity="0.58"/>
</linearGradient>
<linearGradient id="paint1_linear_140_271" x1="180.885" y1="249.368" x2="270.575" y2="95.802" gradientUnits="userSpaceOnUse">
<stop stop-color="#FF9900"/>
<stop offset="1" stop-color="#FFEE94"/>
</linearGradient>
<linearGradient id="paint2_linear_140_271" x1="14.8304" y1="275.179" x2="201.964" y2="134.708" gradientUnits="userSpaceOnUse">
<stop stop-color="#D8DBDC"/>
<stop offset="1" stop-color="white" stop-opacity="0.75"/>
</linearGradient>
</defs>
</svg>
